<?xml version="1.0" encoding="UTF-8" standalone="no" ?>
<!DOCTYPE svg PUBLIC "-//W3C//DTD SVG 1.1//EN" "http://www.w3.org/Graphics/SVG/1.1/DTD/svg11.dtd">
<svg xmlns="http://www.w3.org/2000/svg" xmlns:xlink="http://www.w3.org/1999/xlink" version="1.1" width="500" height="500" viewBox="0 0 500 500" xml:space="preserve">
<desc>Created with Fabric.js 5.3.0</desc>
<defs>
</defs>
<g transform="matrix(1 0 0 1 250 249.7549920372)" id="0cVYZA6qKBwL7tQRECixE"  >
<path style="stroke: rgb(0,0,0); stroke-width: 0; stroke-dasharray: none; stroke-linecap: butt; stroke-dashoffset: 0; stroke-linejoin: miter; stroke-miterlimit: 4; fill: rgb(99,132,106); fill-rule: nonzero; opacity: 1;"  transform=" translate(0, 0)" d="M -249.72437 -68.32316 C -249.72087 -78.64773 -245.36830999999998 -88.49321 -237.73438 -95.44446 C -230.10045 -102.39571000000001 -219.89146 -105.8096 -209.61169999999998 -104.84869 L -159.10720999999998 -100.0561 L -159.10720999999998 -100.0561 C -142.95493 -98.77435 -127.03865999999998 -104.54773 -115.46439999999998 -115.88685 C -103.89013999999999 -127.22596999999999 -97.79135999999998 -143.02041 -98.74136999999999 -159.1956 L -99.60708 -165.98485000000002 L -99.60708 -165.98485000000002 C -102.53224999999999 -187.13131 -96.09813 -208.50279000000003 -81.98456999999999 -224.51955000000004 C -67.87100999999998 -240.53631000000004 -47.47899999999999 -249.60845000000003 -26.13253999999999 -249.36738000000003 C -24.05766999999999 -249.34395000000004 -23.90976999999999 -249.40268000000003 -19.845649999999992 -249.47936 C 38.588750000000005 -250.58190000000002 249.72436000000005 -249.47936 249.72436000000005 -249.47936 L 249.72436000000005 249.96937 L -249.72436999999996 249.96937 z" stroke-linecap="round" />
</g>
</svg>