<?xml version="1.0" encoding="UTF-8" standalone="no" ?>
<!DOCTYPE svg PUBLIC "-//W3C//DTD SVG 1.1//EN" "http://www.w3.org/Graphics/SVG/1.1/DTD/svg11.dtd">
<svg xmlns="http://www.w3.org/2000/svg" xmlns:xlink="http://www.w3.org/1999/xlink" version="1.1" width="1920" height="1080" viewBox="0 0 1920 1080" xml:space="preserve">
<desc>Created with Fabric.js 5.3.0</desc>
<defs>
</defs>
<g transform="matrix(1 0 0 1 960.1396103896 540.1396103896)" id="DZk00yuMATsIvZmbvebf_"  >
<path style="stroke: rgb(0,0,0); stroke-width: 0; stroke-dasharray: none; stroke-linecap: butt; stroke-dashoffset: 0; stroke-linejoin: miter; stroke-miterlimit: 4; fill: rgb(36,36,36); fill-rule: nonzero; opacity: 1;"  transform=" translate(0, 0)" d="M -959.08117 -539.08117 L 38.535409999999956 -539.08117 L 38.535409999999956 -539.08117 C 66.34359999999995 -539.08117 92.30586999999996 -525.1617100000001 107.69660999999995 -502.00096 C 123.08734999999994 -478.84021 125.86327999999995 -449.51300000000003 115.09142999999995 -423.87587 L 115.09142999999995 -423.87587 L 115.09142999999995 -423.87587 C 82.60089999999994 -346.54799 86.54584999999994 -258.71814000000006 125.83803999999995 -184.61444000000003 L 169.45914999999997 -102.34655000000004 L 169.45914999999997 -102.34655000000004 C 217.03761999999998 -12.61523000000004 280.49771999999996 67.74182999999996 356.75784 134.82248999999996 L 356.75784 134.82248999999996 L 356.75784 134.82248999999996 C 389.76089 163.85294999999996 435.28677 174.05515999999994 477.52263999999997 161.88549999999995 L 477.52263999999997 161.88549999999995 L 477.52263999999997 161.88549999999995 C 611.35628 123.32326999999995 754.7762 136.24332999999996 879.56322 198.10356999999993 L 879.56322 198.10356999999993 L 879.56322 198.10356999999993 C 928.26915 222.24838999999994 959.08117 271.91291999999993 959.08117 326.27503999999993 L 959.08117 539.0811699999999 L -959.08117 539.0811699999999 z" stroke-linecap="round" />
</g>
</svg>