<?xml version="1.0" encoding="UTF-8"?>
<svg xmlns="http://www.w3.org/2000/svg" viewBox="0 0 500 500">
  <path fill="#242424" d="m6.19,321.03c20.09-69.67,81.73-74.74,94.5-125.1,15.03-59.25-59.79-93.65-46.22-133.04,20.7-60.11,238.49-106.78,361.58,4.96,90.37,82.05,114.55,235.75,39.03,328.64-85.65,105.35-272.21,134.14-272.21,68.51s154.44-51,178.73-154.89c14.43-61.7-23.19-133.67-54.44-135.03-45.91-1.99-45.18,149.9-162.3,206.52-45.01,21.76-112.09,31.71-135.59,3.97-16.18-19.1-7.09-50.63-3.08-64.54Z"/>
</svg>