<?xml version="1.0" encoding="UTF-8"?>
<svg id="_Слой_1" data-name="Слой 1" xmlns="http://www.w3.org/2000/svg" viewBox="0 0 494.19 448.07">
  <defs>
    <style>
      .cls-1 {
        isolation: isolate;
      }

      .cls-2 {
        fill: #b56e4b;
      }

      .cls-2, .cls-3, .cls-4, .cls-5 {
        stroke: rgba(15, 15, 0, 0);
      }

      .cls-2, .cls-4 {
        stroke-miterlimit: 4;
        stroke-width: 1px;
      }

      .cls-3, .cls-4 {
        fill: #8b5b3c;
      }

      .cls-6 {
        fill: #fff1de;
      }

      .cls-5 {
        fill: #63846a;
      }
    </style>
  </defs>
  <ellipse id="svg_9" data-name="svg 9" class="cls-4" cx="256.55" cy="107.16" rx="106.64" ry="109.63" transform="translate(133.74 356.59) rotate(-86.46)"/>
  <ellipse id="svg_8" data-name="svg 8" class="cls-2" cx="370.29" cy="200.83" rx="120.05" ry="123.42" transform="translate(146.97 558) rotate(-86.46)"/>
  <circle id="svg_1" data-name="svg 1" class="cls-5" cx="222.9" cy="255.57" r="192"/>
  <g id="svg_2" data-name="svg 2" class="cls-1">
    <path class="cls-6" d="m103.98,232.57v-71.58h21.63l12.99,48.83,12.84-48.83h21.68v71.58h-13.43v-56.35l-14.21,56.35h-13.92l-14.16-56.35v56.35h-13.43Z"/>
    <path class="cls-6" d="m187.48,232.57v-71.58h53.08v12.11h-38.62v15.87h35.94v12.06h-35.94v19.48h39.99v12.06h-54.44Z"/>
    <path class="cls-6" d="m254.13,160.99h26.42c5.96,0,10.5.46,13.62,1.37,4.2,1.24,7.8,3.43,10.79,6.59,2.99,3.16,5.27,7.02,6.84,11.6,1.56,4.57,2.34,10.21,2.34,16.92,0,5.89-.73,10.97-2.2,15.23-1.79,5.21-4.35,9.42-7.67,12.65-2.51,2.44-5.89,4.35-10.16,5.71-3.19,1.01-7.46,1.51-12.79,1.51h-27.2v-71.58Zm14.45,12.11v47.41h10.79c4.04,0,6.95-.23,8.74-.68,2.34-.59,4.29-1.58,5.83-2.98,1.55-1.4,2.81-3.7,3.78-6.91.98-3.21,1.46-7.58,1.46-13.11s-.49-9.78-1.46-12.74c-.98-2.96-2.34-5.27-4.1-6.93s-3.99-2.78-6.69-3.37c-2.02-.46-5.97-.68-11.87-.68h-6.49Z"/>
    <path class="cls-6" d="m325.95,232.57v-71.58h14.45v71.58h-14.45Z"/>
  </g>
  <g id="svg_5" data-name="svg 5" class="cls-1">
    <path class="cls-6" d="m183.29,318.57v-59.47h-21.24v-12.11h56.88v12.11h-21.19v59.47h-14.45Z"/>
    <path class="cls-6" d="m227.82,318.57v-71.58h14.45v71.58h-14.45Z"/>
    <path class="cls-6" d="m255.99,246.99h26.42c5.96,0,10.5.46,13.62,1.37,4.2,1.24,7.8,3.43,10.79,6.59,2.99,3.16,5.27,7.02,6.84,11.6,1.56,4.57,2.34,10.21,2.34,16.92,0,5.89-.73,10.97-2.2,15.23-1.79,5.21-4.35,9.42-7.67,12.65-2.51,2.44-5.89,4.35-10.16,5.71-3.19,1.01-7.46,1.51-12.79,1.51h-27.2v-71.58Zm14.45,12.11v47.41h10.79c4.04,0,6.95-.23,8.74-.68,2.34-.59,4.29-1.58,5.83-2.98,1.55-1.4,2.81-3.7,3.78-6.91.98-3.21,1.46-7.58,1.46-13.11s-.49-9.78-1.46-12.74c-.98-2.96-2.34-5.27-4.1-6.93s-3.99-2.78-6.69-3.37c-2.02-.46-5.97-.68-11.87-.68h-6.49Z"/>
    <path class="cls-6" d="m328.26,318.57v-71.58h53.08v12.11h-38.62v15.87h35.94v12.06h-35.94v19.48h39.99v12.06h-54.44Z"/>
  </g>
  <ellipse id="svg_7" data-name="svg 7" class="cls-2" cx="73.78" cy="335.11" rx="71.29" ry="73.29" transform="translate(-265.24 388.05) rotate(-86.46)"/>
  <ellipse id="svg_6" data-name="svg 6" class="cls-3" cx="119.35" cy="394.61" rx="51.5" ry="50.1"/>
</svg>